<svg width="25" height="25" viewBox="0 0 25 25" fill="none" xmlns="http://www.w3.org/2000/svg">
<path d="M8.51069 19H12.7347C15.3427 19 17.3267 17.896 17.3267 15.512C17.3267 13.912 16.3827 13.016 15.1027 12.712V12.632C16.1107 12.28 16.7187 11.16 16.7187 10.072C16.7187 7.864 14.8627 7.144 12.4307 7.144H8.51069V19ZM10.8787 11.976V8.968H12.2867C13.7107 8.968 14.4147 9.384 14.4147 10.424C14.4147 11.368 13.7587 11.976 12.2547 11.976H10.8787ZM10.8787 17.176V13.72H12.5267C14.1587 13.72 15.0227 14.216 15.0227 15.368C15.0227 16.6 14.1427 17.176 12.5267 17.176H10.8787Z" fill="black"/>
</svg>
