<svg width="18" height="18" viewBox="0 0 18 18" fill="none" xmlns="http://www.w3.org/2000/svg">
<path d="M1 5L5.13793 1V3.5H16V6.5H5.13793V9L1 5ZM6.68966 11.35V10.5H3.58621V16H6.68966V15.15H4.36207V13.675H6.68966V12.825H4.36207V11.35H6.68966ZM13.4138 10.5H11.8621V16H13.4138C14.2672 16 14.9655 15.3 14.9655 14.425V12.1C14.9655 11.2 14.2672 10.5 13.4138 10.5ZM14.1897 14.425C14.1897 14.825 13.8534 15.175 13.4138 15.175H12.6379V11.35H13.4138C13.8534 11.35 14.1897 11.675 14.1897 12.1V14.425ZM8.5 12.425L10 16H10.8276V10.5H10.0517V14.075L8.55172 10.5H7.72414V16H8.5V12.425Z" fill="#32465E"/>
</svg>
