<svg width="17" height="20" viewBox="0 0 17 20" fill="none" xmlns="http://www.w3.org/2000/svg">
<g clip-path="url(#clip0_1076_2731)">
<path d="M10.8044 12.4003L5.76688 10.9618C5.61516 10.9167 5.47552 10.8412 5.35746 10.7405C5.23939 10.6398 5.14566 10.5162 5.08265 10.3783V10.374C4.54435 9.24759 4.56098 7.57409 5.24974 5.82488C6.34072 3.05642 9.14944 1.44792 10.9292 2.17432C11.073 2.23215 11.2112 2.30195 11.342 2.38288L11.3684 2.39931L11.4085 2.4243C11.6737 2.58531 11.9046 2.79199 12.089 3.03356C12.4328 3.44762 12.6827 3.92418 12.8231 4.43351C13.3024 5.82988 12.7943 8.82832 11.4047 12.1232V12.1275C11.3592 12.2359 11.2722 12.3241 11.161 12.3746C11.0498 12.4252 10.9225 12.4344 10.8044 12.4003V12.4003Z" fill="#343A40"/>
<path d="M9.343 14.4888C9.51775 14.5331 9.67882 14.6161 9.81289 14.7309C9.94696 14.8458 10.0502 14.9891 10.114 15.149C10.1778 15.309 10.2004 15.481 10.18 15.6509C10.1595 15.8207 10.0965 15.9835 9.99622 16.1258L9.9879 16.138C8.86064 17.9022 7.39239 19.2393 5.94834 18.9643C4.36064 18.6629 3.65222 16.2458 4.16104 13.9952C4.18317 13.8945 4.22682 13.7992 4.2893 13.715C4.35179 13.6308 4.4318 13.5596 4.52445 13.5056C4.61709 13.4517 4.72042 13.4161 4.8281 13.4012C4.93579 13.3863 5.04556 13.3923 5.15071 13.4188L9.343 14.4888Z" fill="#343A40"/>
</g>
<defs>
<clipPath id="clip0_1076_2731">
<rect width="9" height="17" fill="white" transform="translate(4 2)"/>
</clipPath>
</defs>
</svg>
