<svg width="5" height="8" viewBox="0 0 5 8" fill="none" xmlns="http://www.w3.org/2000/svg">
<g clip-path="url(#clip0_1201_24093)">
<path d="M3.78029 4.89421L0.981656 4.21726C0.89737 4.19601 0.819793 4.16049 0.754199 4.1131C0.688606 4.06572 0.636535 4.00758 0.601531 3.94265V3.94063C0.302472 3.41057 0.311713 2.62304 0.694358 1.79988C1.30046 0.497082 2.86086 -0.259861 3.8496 0.0819734C3.92953 0.10919 4.00627 0.142035 4.07894 0.18012L4.09364 0.187851L4.1159 0.199615C4.26324 0.275384 4.39148 0.372643 4.49392 0.486326C4.68497 0.681177 4.82381 0.905437 4.90177 1.14512C5.16806 1.80224 4.88581 3.21327 4.1138 4.76379V4.76581C4.08851 4.81682 4.04017 4.85834 3.97838 4.88213C3.91659 4.90592 3.84588 4.91023 3.78029 4.89421Z" fill="current"/>
<path d="M2.96831 5.87713C3.06539 5.89801 3.15487 5.93707 3.22936 5.9911C3.30384 6.04513 3.36118 6.11258 3.39664 6.18785C3.4321 6.26313 3.44466 6.34408 3.43328 6.42401C3.42191 6.50394 3.38691 6.58055 3.33121 6.64752L3.32659 6.65323C2.70033 7.48345 1.88463 8.11267 1.08238 7.98326C0.200327 7.84142 -0.193239 6.70399 0.089439 5.64487C0.101734 5.5975 0.125982 5.55263 0.160697 5.51301C0.195412 5.4734 0.239864 5.43987 0.291333 5.41448C0.342803 5.38908 0.400206 5.37236 0.46003 5.36534C0.519854 5.35832 0.58084 5.36113 0.639255 5.37362L2.96831 5.87713Z" fill="current"/>
</g>
<defs>
<clipPath id="clip0_1201_24093">
<rect width="5" height="8" fill="current"/>
</clipPath>
</defs>
</svg>
