<svg width="12" height="12" viewBox="0 0 12 12" fill="none" xmlns="http://www.w3.org/2000/svg">
<path d="M3.42583 4.82724C3.71359 4.82724 3.94686 4.59396 3.94686 4.3062C3.94686 4.01843 3.71359 3.78516 3.42583 3.78516C3.13806 3.78516 2.90479 4.01843 2.90479 4.3062C2.90479 4.59396 3.13806 4.82724 3.42583 4.82724Z" fill="#343A40"/>
<path d="M7.8953 2.91576C8.47633 2.91576 8.94734 2.44474 8.94734 1.86372C8.94734 1.28269 8.47633 0.811676 7.8953 0.811676C7.31428 0.811676 6.84326 1.28269 6.84326 1.86372C6.84326 2.44474 7.31428 2.91576 7.8953 2.91576Z" fill="#343A40"/>
<path d="M5.72562 2.85577C6.08807 2.85577 6.3819 2.56195 6.3819 2.19949C6.3819 1.83704 6.08807 1.54321 5.72562 1.54321C5.36316 1.54321 5.06934 1.83704 5.06934 2.19949C5.06934 2.56195 5.36316 2.85577 5.72562 2.85577Z" fill="#343A40"/>
<path d="M8.74847 8.88517C8.58676 8.62562 8.49601 8.32818 8.48527 8.02257C8.47453 7.71696 8.54418 7.41387 8.68727 7.14361L8.68319 7.13749C8.95259 6.73413 9.0961 6.25983 9.09551 5.77477C9.09551 4.41565 7.99367 3.31393 6.63467 3.31393C5.27555 3.31393 4.17383 4.41565 4.17383 5.77477C4.17383 6.04021 4.21703 6.29533 4.29491 6.53497C4.34645 6.74691 4.43014 6.9497 4.54307 7.13629L4.53155 7.14289L6.31403 10.2304C6.50219 10.7872 7.02767 11.1885 7.64783 11.1885C8.42591 11.1885 9.05699 10.5577 9.05699 9.77953C9.05699 9.44197 8.93795 9.13225 8.73983 8.88961L8.74847 8.88517Z" fill="#343A40"/>
<path d="M4.3394 3.72421C4.62716 3.72421 4.86044 3.49093 4.86044 3.20317C4.86044 2.91541 4.62716 2.68213 4.3394 2.68213C4.05164 2.68213 3.81836 2.91541 3.81836 3.20317C3.81836 3.49093 4.05164 3.72421 4.3394 3.72421Z" fill="#343A40"/>
</svg>
