<svg width="42" height="42" viewBox="0 0 42 42" fill="none" xmlns="http://www.w3.org/2000/svg">
<g clip-path="url(#clip0_794_2817)">
<path d="M38.5083 9.40301C38.0347 8.68898 37.5183 8.00422 36.9621 7.35248C37.6779 11.0256 36.5724 18.0474 33.8156 25.7897V25.7993C33.734 26.0628 33.5555 26.2857 33.3161 26.4229C33.0767 26.5602 32.7943 26.6016 32.5256 26.539L21.6354 23.5165C21.3007 23.4144 20.9935 23.2379 20.7367 23.0001C20.4799 22.7624 20.2803 22.4696 20.1529 22.1436V22.1341C18.9773 19.4043 18.9917 15.2587 20.4567 10.8554C22.0315 6.11803 25.3275 2.62466 28.4867 1.37589C25.6165 0.284037 22.5417 -0.164929 19.4791 0.060621C16.4165 0.286171 13.4407 1.18076 10.7614 2.68132C8.08205 4.18187 5.76446 6.25187 3.97197 8.74541C2.17948 11.2389 0.955725 14.0953 0.386966 17.1132C-0.181794 20.131 -0.0817115 23.2369 0.680157 26.2119C1.44202 29.1869 2.84713 31.9585 4.79644 34.3315C6.74574 36.7045 9.19179 38.621 11.9622 39.9459C14.7325 41.2708 17.7598 41.972 20.8305 41.9999C18.1788 40.1036 17.2212 35.169 18.1438 30.4889C18.1994 30.2347 18.3068 29.9947 18.4591 29.7837C18.6114 29.5728 18.8055 29.3954 19.0293 29.2626C19.253 29.1298 19.5017 29.0445 19.7599 29.0119C20.018 28.9793 20.2801 29.0001 20.5299 29.0731L30.1633 31.6295C32.0102 32.1068 32.8835 34.1748 31.8622 35.6828L31.8431 35.7131C30.5976 37.7668 29.2328 39.5994 27.7661 40.8879C30.8072 39.8514 33.5701 38.1313 35.8423 35.8597C38.1145 33.5882 39.8355 30.8258 40.873 27.785C41.9105 24.7442 42.2368 21.5059 41.8269 18.3192C41.4169 15.1325 40.2816 12.0822 38.5083 9.40301Z" fill="#EEEEEE"/>
</g>
<defs>
<clipPath id="clip0_794_2817">
<rect width="42" height="42" fill="white"/>
</clipPath>
</defs>
</svg>
