<svg width="255" height="255" viewBox="0 0 255 255" fill="none" xmlns="http://www.w3.org/2000/svg">
<g clip-path="url(#clip0_790_2801)">
<path d="M233.801 57.0906C230.925 52.7554 227.79 48.598 224.413 44.641C228.759 66.9422 222.047 109.574 205.31 156.581V156.639C204.814 158.24 203.73 159.592 202.277 160.426C200.823 161.259 199.108 161.511 197.477 161.131L131.358 142.78C129.326 142.16 127.461 141.088 125.902 139.645C124.343 138.201 123.131 136.423 122.357 134.444V134.387C115.22 117.813 115.307 92.6431 124.202 65.9087C133.763 37.1461 153.775 15.9363 172.955 8.35453C155.529 1.72545 136.861 -1.00042 118.266 0.368998C99.6721 1.73841 81.6045 7.16983 65.3372 16.2804C49.0699 25.3909 34.9988 37.9587 24.1158 53.0981C13.2328 68.2374 5.80288 85.5797 2.3497 103.902C-1.10349 122.225 -0.495844 141.082 4.12978 159.145C8.75541 177.207 17.2864 194.035 29.1215 208.442C40.9565 222.849 55.8076 234.485 72.6277 242.53C89.4478 250.574 107.828 254.831 126.471 255C110.371 243.487 104.557 213.527 110.159 185.112C110.497 183.569 111.148 182.112 112.073 180.831C112.998 179.55 114.176 178.473 115.535 177.667C116.894 176.861 118.404 176.343 119.971 176.145C121.538 175.947 123.13 176.073 124.646 176.516L183.135 192.037C194.348 194.935 199.65 207.491 193.45 216.647L193.334 216.83C185.771 229.299 177.485 240.426 168.58 248.249C187.044 241.956 203.818 231.512 217.614 217.721C231.41 203.929 241.859 187.158 248.158 168.696C254.457 150.233 256.438 130.572 253.949 111.224C251.46 91.8767 244.567 73.3573 233.801 57.0906V57.0906Z" fill="#EEEEEE"/>
</g>
<defs>
<clipPath id="clip0_790_2801">
<rect width="255" height="255" fill="white"/>
</clipPath>
</defs>
</svg>
