<svg width="24" height="24" viewBox="0 0 24 24" fill="none" xmlns="http://www.w3.org/2000/svg">
<path d="M19.5549 14.5466L17.8532 12.8272V8.59041C17.8758 7.01714 17.3312 5.48877 16.3198 4.28749C15.3085 3.08622 13.8987 2.29318 12.3509 2.05481C11.4526 1.93594 10.5393 2.01094 9.67215 2.27479C8.80496 2.53865 8.00375 2.9853 7.32197 3.58494C6.64019 4.18458 6.09352 4.92342 5.71844 5.75217C5.34336 6.58092 5.14849 7.48051 5.14684 8.39093V12.8272L3.4451 14.5466C3.23134 14.7649 3.08639 15.0417 3.02836 15.3424C2.97033 15.6431 3.00179 15.9543 3.11881 16.2371C3.23584 16.5199 3.43323 16.7618 3.68632 16.9325C3.9394 17.1032 4.23696 17.1952 4.54177 17.1969H7.71835V17.5199C7.76251 18.4843 8.18534 19.3917 8.89419 20.0434C9.60303 20.6951 10.5401 21.0379 11.5 20.9967C12.4599 21.0379 13.397 20.6951 14.1058 20.0434C14.8147 19.3917 15.2375 18.4843 15.2816 17.5199V17.1969H18.4582C18.763 17.1952 19.0606 17.1032 19.3137 16.9325C19.5668 16.7618 19.7642 16.5199 19.8812 16.2371C19.9982 15.9543 20.0297 15.6431 19.9716 15.3424C19.9136 15.0417 19.7687 14.7649 19.5549 14.5466ZM13.3908 17.5199C13.3384 17.9768 13.1125 18.3958 12.7603 18.6895C12.4081 18.9833 11.9566 19.1292 11.5 19.0968C11.0434 19.1292 10.5919 18.9833 10.2397 18.6895C9.88747 18.3958 9.66161 17.9768 9.60918 17.5199V17.1969H13.3908V17.5199ZM5.36428 15.297L6.47987 14.1761C6.65682 13.9993 6.7972 13.7891 6.89294 13.5576C6.98867 13.3261 7.03786 13.0779 7.03766 12.8272V8.39093C7.03817 7.7501 7.17511 7.11679 7.43926 6.53351C7.70342 5.95023 8.08869 5.43048 8.56922 5.00913C9.04327 4.57755 9.60499 4.25464 10.2155 4.06273C10.826 3.87083 11.4708 3.81452 12.1051 3.8977C13.1984 4.07607 14.1908 4.64531 14.8996 5.50061C15.6084 6.35591 15.9858 7.43969 15.9623 8.55242V12.8272C15.9609 13.0772 16.0086 13.3251 16.1027 13.5565C16.1968 13.788 16.3354 13.9986 16.5107 14.1761L17.6357 15.297H5.36428Z" fill="#32465E"/>
</svg>
