<svg width="14" height="14" viewBox="0 0 14 14" fill="none" xmlns="http://www.w3.org/2000/svg">
<path d="M10.4713 3.19975L5.4292 6.66405C5.4292 6.66405 5.2339 6.80475 5.2339 7.00075C5.2339 7.19675 5.4292 7.33605 5.4292 7.33605L10.4713 10.8017C10.8717 11.0677 11.2 10.871 11.2 10.3635V3.63725C11.2 3.12835 10.8717 2.93165 10.4713 3.19975ZM4.2 2.80005H3.5C3.1129 2.80005 2.8 2.83365 2.8 3.22005V10.78C2.8 11.1664 3.1129 11.2 3.5 11.2H4.2C4.5871 11.2 4.9 11.1664 4.9 10.78V3.22005C4.9 2.83365 4.5871 2.80005 4.2 2.80005Z" fill="black"/>
</svg>
