<svg width="22" height="20" viewBox="0 0 22 20" fill="none" xmlns="http://www.w3.org/2000/svg">
<path d="M20.1707 4.47619C19.9224 4.13615 19.6518 3.81004 19.3603 3.49966C19.7355 5.24894 19.156 8.59295 17.7111 12.2801V12.2847C17.6683 12.4102 17.5748 12.5163 17.4493 12.5817C17.3239 12.6471 17.1758 12.6668 17.035 12.637L11.3272 11.1975C11.1518 11.1489 10.9907 11.0649 10.8562 10.9516C10.7216 10.8384 10.617 10.699 10.5502 10.5437V10.5392C9.93404 9.23917 9.94154 7.26489 10.7094 5.16788C11.5348 2.91177 13.2623 1.2481 14.9181 0.653387C13.4138 0.133408 11.8022 -0.0804057 10.197 0.0270096C8.59187 0.134425 7.03216 0.560459 5.62787 1.27508C4.22358 1.9897 3.00887 2.97551 2.06939 4.16302C1.1299 5.35054 0.488505 6.71084 0.190405 8.14806C-0.107694 9.58527 -0.055239 11.0644 0.344073 12.4812C0.743386 13.898 1.47984 15.218 2.50151 16.348C3.52318 17.4781 4.80521 18.3908 6.25723 19.0218C7.70924 19.6528 9.29589 19.9867 10.9053 20C9.5155 19.097 9.0136 16.7469 9.49716 14.5181C9.52633 14.397 9.58257 14.2827 9.66241 14.1822C9.74225 14.0818 9.84397 13.9973 9.96126 13.9341C10.0785 13.8708 10.2089 13.8302 10.3442 13.8147C10.4795 13.7991 10.6169 13.8091 10.7478 13.8438L15.7969 15.0613C16.7648 15.2885 17.2226 16.2734 16.6873 16.9916L16.6773 17.006C16.0245 17.984 15.3091 18.8568 14.5404 19.4704C16.1343 18.9768 17.5824 18.1576 18.7733 17.0758C19.9643 15.9941 20.8663 14.6785 21.41 13.2304C21.9538 11.7822 22.1249 10.24 21.91 8.7224C21.6951 7.20477 21.1001 5.75214 20.1707 4.47619V4.47619Z" fill="#32465E"/>
</svg>
