<svg width="58" height="58" viewBox="0 0 58 58" fill="none" xmlns="http://www.w3.org/2000/svg">
<g filter="url(#filter0_d_626_3473)">
<circle cx="33" cy="29" r="25" fill="#343A40"/>
<path d="M37.5 31H36.71L36.43 30.73C37.41 29.59 38 28.11 38 26.5C38 22.91 35.09 20 31.5 20C27.91 20 25 22.91 25 26.5C25 30.09 27.91 33 31.5 33C33.11 33 34.59 32.41 35.73 31.43L36 31.71V32.5L41 37.49L42.49 36L37.5 31ZM31.5 31C29.01 31 27 28.99 27 26.5C27 24.01 29.01 22 31.5 22C33.99 22 36 24.01 36 26.5C36 28.99 33.99 31 31.5 31Z" fill="white"/>
</g>
<defs>
<filter id="filter0_d_626_3473" x="0" y="0" width="58" height="58" filterUnits="userSpaceOnUse" color-interpolation-filters="sRGB">
<feFlood flood-opacity="0" result="BackgroundImageFix"/>
<feColorMatrix in="SourceAlpha" type="matrix" values="0 0 0 0 0 0 0 0 0 0 0 0 0 0 0 0 0 0 127 0" result="hardAlpha"/>
<feOffset dx="-4"/>
<feGaussianBlur stdDeviation="2"/>
<feComposite in2="hardAlpha" operator="out"/>
<feColorMatrix type="matrix" values="0 0 0 0 0.196078 0 0 0 0 0.27451 0 0 0 0 0.368627 0 0 0 0.29 0"/>
<feBlend mode="normal" in2="BackgroundImageFix" result="effect1_dropShadow_626_3473"/>
<feBlend mode="normal" in="SourceGraphic" in2="effect1_dropShadow_626_3473" result="shape"/>
</filter>
</defs>
</svg>
