<svg width="8" height="8" viewBox="0 0 8 8" fill="none" xmlns="http://www.w3.org/2000/svg">
<g clip-path="url(#clip0_1201_24098)">
<path d="M0.5 8.00015H7.5V7.00015H0.5V8.00015ZM6.5 4.00015H5.46C5.20594 4.00015 5 3.79422 5 3.54015V3.39234C5 2.96468 5.13875 2.55781 5.33531 2.17797C5.47766 1.90281 5.53688 1.57812 5.47672 1.2339C5.37094 0.627966 4.87563 0.129215 4.26953 0.0237468C3.32219 -0.141097 2.5 0.583434 2.5 1.50015C2.5 1.7214 2.54875 1.93047 2.63578 2.11859C2.84406 2.56937 3 3.04234 3 3.53906V3.54015C3 3.79422 2.79406 4.00015 2.54 4.00015H1.5C0.671562 4.00015 0 4.67172 0 5.50015V6.00015C0 6.27625 0.223906 6.50015 0.5 6.50015H7.5C7.77609 6.50015 8 6.27625 8 6.00015V5.50015C8 4.67172 7.32844 4.00015 6.5 4.00015Z" fill="current"/>
</g>
<defs>
<clipPath id="clip0_1201_24098">
<rect width="8" height="8" fill="current"/>
</clipPath>
</defs>
</svg>
