<svg width="18" height="18" viewBox="0 0 18 18" fill="none" xmlns="http://www.w3.org/2000/svg">
<path d="M14.6 14.6V13.2H3.4V14.6H14.6ZM6.9 11.8V8.3C6.31233 7.85925 5.87823 7.24476 5.6592 6.54359C5.44017 5.84241 5.44731 5.0901 5.67961 4.3932C5.91191 3.69631 6.35758 3.09017 6.95351 2.66065C7.54944 2.23113 8.26541 2 9 2C9.73459 2 10.4506 2.23113 11.0465 2.66065C11.6424 3.09017 12.0881 3.69631 12.3204 4.3932C12.5527 5.0901 12.5598 5.84241 12.3408 6.54359C12.1218 7.24476 11.6877 7.85925 11.1 8.3V11.8H14.6C14.9713 11.8 15.3274 11.9475 15.5899 12.2101C15.8525 12.4726 16 12.8287 16 13.2V16H2V13.2C2 12.8287 2.1475 12.4726 2.41005 12.2101C2.6726 11.9475 3.0287 11.8 3.4 11.8H6.9ZM9.7 11.8V7.6007L10.2593 7.1807C10.6121 6.91635 10.8727 6.54769 11.0043 6.12695C11.1359 5.70622 11.1317 5.25475 10.9924 4.83651C10.8531 4.41828 10.5857 4.05449 10.2281 3.79669C9.87048 3.5389 9.44083 3.40018 9 3.40018C8.55917 3.40018 8.12952 3.5389 7.77193 3.79669C7.41434 4.05449 7.14694 4.41828 7.00763 4.83651C6.86831 5.25475 6.86415 5.70622 6.99572 6.12695C7.12729 6.54769 7.38793 6.91635 7.7407 7.1807L8.3 7.6007V11.8H9.7Z" fill="#32465E"/>
</svg>
