<svg width="25" height="25" viewBox="0 0 25 25" fill="none" xmlns="http://www.w3.org/2000/svg">
<path d="M20.0703 10.7188H14.4297C14.348 10.7188 14.2812 10.7855 14.2812 10.8672V12.9453C14.2812 13.027 14.348 13.0938 14.4297 13.0938H15.3203C15.402 13.0938 15.4688 13.027 15.4688 12.9453V11.9062H16.582V17.8438H15.7285C15.6469 17.8438 15.5801 17.9105 15.5801 17.9922V18.8828C15.5801 18.9645 15.6469 19.0312 15.7285 19.0312H18.7715C18.8531 19.0312 18.9199 18.9645 18.9199 18.8828V17.9922C18.9199 17.9105 18.8531 17.8438 18.7715 17.8438H17.918V11.9062H19.0312V12.9453C19.0312 13.027 19.098 13.0938 19.1797 13.0938H20.0703C20.152 13.0938 20.2188 13.027 20.2188 12.9453V10.8672C20.2188 10.7855 20.152 10.7188 20.0703 10.7188ZM15.1719 8.49219V6.11719C15.1719 6.03555 15.1051 5.96875 15.0234 5.96875H4.92969C4.84805 5.96875 4.78125 6.03555 4.78125 6.11719V8.49219C4.78125 8.57383 4.84805 8.64062 4.92969 8.64062H5.96875C6.05039 8.64062 6.11719 8.57383 6.11719 8.49219V7.30469H9.23438V17.6953H7.52734C7.4457 17.6953 7.37891 17.7621 7.37891 17.8438V18.8828C7.37891 18.9645 7.4457 19.0312 7.52734 19.0312H12.4258C12.5074 19.0312 12.5742 18.9645 12.5742 18.8828V17.8438C12.5742 17.7621 12.5074 17.6953 12.4258 17.6953H10.7188V7.30469H13.8359V8.49219C13.8359 8.57383 13.9027 8.64062 13.9844 8.64062H15.0234C15.1051 8.64062 15.1719 8.57383 15.1719 8.49219Z" fill="#343A40"/>
</svg>
